<svg id="レイヤー_1" data-name="レイヤー 1" xmlns="http://www.w3.org/2000/svg" viewBox="0 0 494.41 103.39"><defs><style>.cls-1{fill:#c1272d;}.cls-2{fill:#fff;}</style></defs><path class="cls-1" d="M41.14,77.17c-2.22-5.12-6.74-12.54-13.91-23.46-3.41,4.69-7,9.73-11.09,15.19-3,4-4.86,5.12-8.53,5.88a38.68,38.68,0,0,1-7.08,1c-.77,0-.69-1.28.17-2.56C10.42,57.64,23.05,39,33.12,26.07a2.16,2.16,0,0,1-.43-.51,42,42,0,0,1-2.13-7.25c-.17-.86,0-1.88,1-2.14a54.24,54.24,0,0,1,13-1.53c8,0,13.82,1.62,18.08,6.14a10.82,10.82,0,0,1,2.9,7.59c0,10-10.74,20.14-25.76,24.4,2.39,4.61,4.61,9.22,6.31,13.31a11.52,11.52,0,0,1,1.2,4.44c0,2.39-.94,2.56-3.16,5.63C42.93,77.68,41.65,78.2,41.14,77.17ZM33.71,44.41C44.38,43.3,59.65,34.26,61,25.81c-1.79-1.7-4.69-2.47-8.78-2.47A49.47,49.47,0,0,0,41.9,24.62c2.31,2.05,3.16,3.16,2,4.86C40.45,34.52,37.21,39.38,33.71,44.41Z" transform="translate(0 -13.47)"/><path class="cls-2" d="M75.43,64.89c-4.6,6.4-8.36,9-11.09,9-3.41,0-6.82-2.82-8.87-6.4-1.88-3.24-1.71-7.6,3.07-13.82C64.09,46.38,72.53,42,77.4,42c2.55,0,4.69,2.31,6,4.61a2,2,0,0,1,1.88-1,14,14,0,0,1,4.86,1.62c2,.94,2.82,2,2.82,2.9,0,1.11-.69,2.81-3.42,8.36-1.7,3.58-3.24,7.17-3.49,9.55,3.75-.85,7.5-3.83,13.48-11.68l.25-.34c.6-.77.77-.86,1-.6l.25.25a1.12,1.12,0,0,1,.17,1.62l-.25.43c-5.72,9.47-13.48,16.72-20.22,16.72C76.88,74.44,74,72.14,75.43,64.89ZM82,49.1a23.73,23.73,0,0,0-10.24,6.32c-4,4-6.65,8.87-6.14,12.28C70.66,65.91,75.69,60.71,82,49.1Z" transform="translate(0 -13.47)"/><path class="cls-2" d="M96.42,72.22c-2-1.36-2.81-2.47-2.81-4.35,0-2.9,1.87-6.05,6-11.51a143.46,143.46,0,0,0,9.89-14.68c.26-.51.69-.68,1.71-.59a12.46,12.46,0,0,1,4.61,1.19c1.19.68,2,1.88,1,5.63a83.41,83.41,0,0,1,13.74-9.38,8.68,8.68,0,0,1,2.73-1.28c.68,0,.93,1.36.93,2.21s-.59,1.37-1.62,2.14c-8,5.8-16.21,13.56-26,27-3.67,5-4.18,5.54-5.54,5.54S98.3,73.5,96.42,72.22Z" transform="translate(0 -13.47)"/><path class="cls-2" d="M129.78,73.5a14.69,14.69,0,0,1-6.4-7c-1.28-2.9-.08-8.11,3.58-13.05C131.74,47.14,140.1,42,145.9,42c2.31,0,4.1.77,6.49,4.36,1.87,1.62,3,3.15,3,5.11s-1.79,4.7-7.25,8.11a60.76,60.76,0,0,1-13.82,5.8,13.12,13.12,0,0,0-.17,3.16,11.73,11.73,0,0,0,3.58.51,17.65,17.65,0,0,0,9.22-2.9c1.36-.86,1.62-1.28,1.87-1.28s.26.25.26.6a8,8,0,0,1-.34,2.13,5,5,0,0,1-2,2.56,19.13,19.13,0,0,1-11.61,4.43A11.14,11.14,0,0,1,129.78,73.5Zm20.39-24.74c-5.29,1.28-11.43,6.66-14.33,12.54a44.08,44.08,0,0,0,9.55-5.11C149.15,53.46,150.34,51.24,150.17,48.76Z" transform="translate(0 -13.47)"/><path class="cls-2" d="M158,76.49c6.82-11.35,19.45-30.2,33.27-50.42-6.06.94-12.2,2-17.66,2.9-1.45.26-1.71-.08-1.36-.77,1.1-2.47,1.7-4.52,2.64-5.71,1.45-1.79,2.73-2.9,6.57-3.5,3-.51,9.21-1.19,15.78-1.79.77-1.11,1.28-2,1.71-2.65.85-1.28,1.28-1.36,2.81-.59,1.11.59,2.65,1.53,4.18,2.56,4.1-.26,7.85-.43,10.67-.43A9.18,9.18,0,0,1,222.09,18c2,1.36,2.81,1.87,2.81,2.47,0,.34-.34.6-1,.68-3.16.43-9.56,1.37-17.23,2.56-5.63,9-23.12,34.89-34.56,49.82-2,2.65-3.49,3.08-5.54,3.08-4.27.17-6.31.93-8,.93C158,77.51,157.51,77.34,158,76.49Z" transform="translate(0 -13.47)"/><path class="cls-2" d="M200.59,74.7c-2.47-2-4.35-5.21-.94-10.41,3.24-5,6.66-10.07,10.07-15A11.93,11.93,0,0,1,209,47.4c-.6-1.88-.17-2.3.59-2.48.94-.17,2.05-.34,3.5-.51,4.44-6.57,8.79-12.62,12.54-17.83a1.71,1.71,0,0,1-.25-.42,18.53,18.53,0,0,1-1.2-6c0-.68.26-.93,1-1,2.21-.26,4.35-.43,6.48-.68,1-1.2,1.88-2.31,2.64-3.24,1.2-1.45,2-1.88,2.82-1,1,1.2,2.22,2.39,3.33,3.5,8.53-.68,17.14-1.19,26.78-1.71,1.28-.08,1.45.09,1.45.43a17.24,17.24,0,0,1-1,3.5c-.68,1.62-1.28,2.22-3.84,2.47-8.61.86-16,2.05-23.8,3.33-3.92,6-7.51,11.43-11.35,17.15,5.8-.51,12.29-1,19.37-1.79a.53.53,0,0,1,.6.59,6,6,0,0,1-.86,2.48,4.56,4.56,0,0,1-3.49,2.56c-6.91.76-13.65,1.7-20.14,2.9-3.5,5.2-7.33,10.92-12,17.57,12.37-1.28,22.61-2.13,25.6-2,.68,0,.76.26.59.86-.59,2.13-1.28,3.58-4.94,4.52C218.85,74,208.78,77,205.88,77,203.92,77,202.55,76.32,200.59,74.7Z" transform="translate(0 -13.47)"/><path class="cls-2" d="M252.72,71.46c-3.16-2.39-4.86-5.8-4.86-10.41,0-12.71,13.9-28.84,31-39.33,8.19-5.12,15.87-7.85,21.42-7.85a8.16,8.16,0,0,1,6.91,3.24c2.81,3.42,2.56,4.78,1.7,5-28.83,9.12-51.27,29-52.46,43.59a4.76,4.76,0,0,0,2.13.34c7.17,0,20.3-5.2,28.41-11.43.77-.6,1.11-.51,1.11.09a12.33,12.33,0,0,1-2.39,6.91c-7.42,8.61-16.89,14.16-24.48,14.16C257.33,75.81,254.68,74.61,252.72,71.46Z" transform="translate(0 -13.47)"/><path class="cls-2" d="M307.75,78.2c6.4-9.39,13.39-19.71,19.87-29.44-5.29,1-11.09,2.05-16,2.82-4.18,6.06-8.36,11.94-11.95,16.63-2.56,3.42-3.67,4.36-6.74,5.81-2,.85-6.23,1.87-10.15,3.07-1.19.42-2.22.17-1.11-1.71,4.44-7.34,9.3-14.84,14.59-22.69-.09,0-.17-.09-.26-.17a7.53,7.53,0,0,1-1.7-4c-.09-.77.25-.94,1.11-1.11,1.53-.26,3.24-.51,4.94-.77,6.74-9.81,14.08-20.05,21.93-30.8.85-1.11,1.79-1.53,2.64-.68,1.45,1.45,2.56,3.58,4,6.14.94,1.62.77,2.9-1.19,5.89-2.9,4.52-6.91,10.75-11.26,17.23,5.29-.76,10.66-1.45,15.44-2,8.62-12.89,15.87-23.64,18.77-27.65.6-.85,1.11-1.1,1.62-.76,1.19.76,2.9,2.56,4.52,3.92s2.05,3.41.43,5.89C351.85,32.13,330,65.49,323.1,75a6.28,6.28,0,0,1-4.43,2.65c-3.42.6-8.62,2.05-10.07,2.05C307,79.65,307.06,79.22,307.75,78.2Z" transform="translate(0 -13.47)"/><path class="cls-1" d="M355.78,74c-1.88-3.33-3.33-6.32-1-9.73,9.22-14,25.85-37.45,33.53-47.94,2-2.73,2.48-3.08,3.33-2.56a57.15,57.15,0,0,1,4.61,3.41c2.13,1.79,1.45,3.5-.86,7.25-6.05,9.64-18.68,28.66-29.43,44.11,8.53-1.28,17.66-2.48,26.11-3.42,1.11-.17,1.45.09,1.45.52a22.09,22.09,0,0,1-.77,2.73c-.26.85-.26,1.1-2.39,1.87-7.85,2.82-22.61,6.66-28.75,7.17C358.34,77.68,357.06,76.32,355.78,74Z" transform="translate(0 -13.47)"/><path class="cls-1" d="M400.48,70.77c-3.75-4.09-4.52-10.4.77-17.4C405.52,47.65,412.77,42,418.57,42c2.81,0,6.14,1.71,7.25,3.42,2.3.94,3.41,3.49,3.41,6.57a15.59,15.59,0,0,1-.17,2c5.63-.42,9.56-3.07,13.23-6.74l.34-.34c.68-.68.94-.59,1.19-.25L444,47a1.07,1.07,0,0,1-.08,1.45l-.34.43c-3,3.75-8.62,8.19-15.45,8.79a28.77,28.77,0,0,1-2.38,5.2c-4.1,7.08-10.33,11.77-16.9,11.77C405.18,74.61,402.79,73.16,400.48,70.77Zm8.19-2.21c5.72-1.45,11.35-6.23,14.59-11.27-3.58-.85-5-3.24-5-5.54a42.87,42.87,0,0,0-7,8.53C409.36,63.18,408.25,66.08,408.67,68.56Zm16.38-14.85a11.4,11.4,0,0,0,.69-3.58c0-1.2-.43-2.13-1.2-2.39A11.64,11.64,0,0,0,422,48.93c0,.17-.08.43-.08.77A3.93,3.93,0,0,0,425.05,53.71Z" transform="translate(0 -13.47)"/><path class="cls-1" d="M434.27,72.74c-1.71-1.2-3.24-3.33-2.14-7.77,1.2-4.95,7.34-18.08,9.13-22.09.34-.69.69-.86,1.2-.86a21.93,21.93,0,0,1,4.09.86c2.73.59,4,1.53,4,4,0,4.26-3.67,9.89-6.4,19a241,241,0,0,1,21.08-22.44c1.19-1.1,1.62-1.36,2-1.36s.51.17.68.6c.34.76.6.94.6,1.36a5.09,5.09,0,0,1-1.62,2.39c-7.34,7.76-12.8,14.76-20.65,26.53-1.11,1.62-2,2.31-3.33,2.31A17.74,17.74,0,0,1,434.27,72.74Z" transform="translate(0 -13.47)"/><path class="cls-1" d="M464.55,69.84c-3-3.5-4.09-9,2.14-17.15,4.43-5.8,12.2-10.67,17.74-10.67a7.61,7.61,0,0,1,4.35,1.45,8.35,8.35,0,0,1,2.73,2.39,7.07,7.07,0,0,1,2.9,5c0,2.56-1.53,5-7.25,8.7a67.36,67.36,0,0,1-13.65,6c-.34,1.62-.34,3,.26,3.84a8,8,0,0,0,2.56.34c4.86,0,10-1.36,16-6.31.34-.26.51-.34.68-.34.34,0,.42.34.42.85a5.15,5.15,0,0,1-1.1,3.16,25.44,25.44,0,0,1-18.26,8.27C470.87,75.38,468.22,74.19,464.55,69.84Zm24.57-21.67c-4.69,1-11,7.33-14,13.22a49.28,49.28,0,0,0,9.64-5.12C487.93,54,490,51.15,489.12,48.17Z" transform="translate(0 -13.47)"/><path class="cls-2" d="M202.17,116.71V98.48h4.2c3.07,0,4.61,1.79,4.61,5.35a6.77,6.77,0,0,1-.5,2.74,3.88,3.88,0,0,1-1.75,1.82l2.81,8.32h-2.76l-2.43-7.78h-1.56v7.78Zm2.62-15.77v5.68h1.48a2.59,2.59,0,0,0,1.1-.19,1.5,1.5,0,0,0,.64-.55,2.4,2.4,0,0,0,.28-.88,8.7,8.7,0,0,0,.08-1.22,8.55,8.55,0,0,0-.08-1.21,2.28,2.28,0,0,0-.31-.91,2.05,2.05,0,0,0-1.84-.72Z" transform="translate(0 -13.47)"/><path class="cls-2" d="M223.5,116.71v-1.33h-.06a5,5,0,0,1-1,1.1,2.5,2.5,0,0,1-1.47.38,3.45,3.45,0,0,1-.94-.14,2.48,2.48,0,0,1-.91-.52,2.54,2.54,0,0,1-.7-1,4.8,4.8,0,0,1-.27-1.75,9.28,9.28,0,0,1,.18-1.94,3.1,3.1,0,0,1,.66-1.39,2.81,2.81,0,0,1,1.26-.81,6.37,6.37,0,0,1,2-.27h.28a1.2,1.2,0,0,1,.28,0,1.47,1.47,0,0,0,.31,0l.39,0v-1.36a2,2,0,0,0-.29-1.1,1.11,1.11,0,0,0-1-.43,1.47,1.47,0,0,0-.93.33,1.52,1.52,0,0,0-.55,1h-2.54a4.14,4.14,0,0,1,1.18-2.81,3.76,3.76,0,0,1,1.23-.81,4.13,4.13,0,0,1,1.61-.29,4.56,4.56,0,0,1,1.54.25,3.59,3.59,0,0,1,1.25.77,3.86,3.86,0,0,1,.82,1.28,4.89,4.89,0,0,1,.31,1.79v9Zm0-5.58a4.48,4.48,0,0,0-.72-.08,2.54,2.54,0,0,0-1.45.4,1.59,1.59,0,0,0-.6,1.44,1.91,1.91,0,0,0,.36,1.21,1.21,1.21,0,0,0,1,.46,1.27,1.27,0,0,0,1-.44,1.83,1.83,0,0,0,.38-1.23Z" transform="translate(0 -13.47)"/><path class="cls-2" d="M233.66,116.71v-13h2.61v1.38a7.74,7.74,0,0,1,1.56-1.12,3.89,3.89,0,0,1,1.89-.41v2.76a2.13,2.13,0,0,0-.79-.15,2.87,2.87,0,0,0-.88.14,2.2,2.2,0,0,0-.86.47,2.47,2.47,0,0,0-.67.87,3.1,3.1,0,0,0-.25,1.33v7.71Z" transform="translate(0 -13.47)"/><path class="cls-2" d="M254,111.2h-5.17V113a1.26,1.26,0,0,0,.35,1,1.29,1.29,0,0,0,.93.33,1,1,0,0,0,1-.44,2.24,2.24,0,0,0,.29-.87H254a3.74,3.74,0,0,1-1,2.77,3.54,3.54,0,0,1-1.23.84,3.92,3.92,0,0,1-1.61.31,4,4,0,0,1-2.08-.51,3.45,3.45,0,0,1-1.32-1.36,3.49,3.49,0,0,1-.39-1.18,10.77,10.77,0,0,1-.1-1.45v-4.28a10.92,10.92,0,0,1,.1-1.46,3.51,3.51,0,0,1,.39-1.17,3.45,3.45,0,0,1,1.32-1.36,4,4,0,0,1,2.08-.51,4.26,4.26,0,0,1,1.63.3,3.75,3.75,0,0,1,1.24.85,4.2,4.2,0,0,1,1,2.89Zm-5.17-2h2.56v-1.49a1.59,1.59,0,0,0-.34-1.11,1.22,1.22,0,0,0-.94-.37,1.2,1.2,0,0,0-.93.37,1.59,1.59,0,0,0-.35,1.11Z" transform="translate(0 -13.47)"/><path class="cls-2" d="M263.37,116.71V100.94h-3V98.48H269v2.46h-3v15.77Z" transform="translate(0 -13.47)"/><path class="cls-2" d="M275.78,116.71V98.48h7.79v2.46h-5.18v5.35h4.51v2.46h-4.51v5.35h5.18v2.61Z" transform="translate(0 -13.47)"/><path class="cls-2" d="M299.18,111.51v1.13a4.15,4.15,0,0,1-.32,1.6,4.48,4.48,0,0,1-.89,1.34,4.06,4.06,0,0,1-1.31.93,3.76,3.76,0,0,1-1.63.35,6.15,6.15,0,0,1-1.51-.2,3.65,3.65,0,0,1-1.38-.72,3.87,3.87,0,0,1-1-1.32,4.58,4.58,0,0,1-.4-2.06v-10a4.39,4.39,0,0,1,.31-1.67,3.84,3.84,0,0,1,.87-1.33,4,4,0,0,1,1.34-.88,4.59,4.59,0,0,1,1.73-.32,3.94,3.94,0,0,1,3,1.2,4.4,4.4,0,0,1,.89,1.4,4.74,4.74,0,0,1,.32,1.75v1h-2.61v-.88a2.13,2.13,0,0,0-.44-1.33,1.42,1.42,0,0,0-1.18-.56,1.34,1.34,0,0,0-1.29.6,3.28,3.28,0,0,0-.32,1.53v9.31a2.42,2.42,0,0,0,.35,1.33,1.35,1.35,0,0,0,1.24.54,1.91,1.91,0,0,0,.55-.09,1.82,1.82,0,0,0,.55-.29,1.62,1.62,0,0,0,.38-.57,2.12,2.12,0,0,0,.16-.89v-.9Z" transform="translate(0 -13.47)"/><path class="cls-2" d="M306.93,116.71V98.48h2.61v7.81h3.23V98.48h2.61v18.23h-2.61v-8.12h-3.23v8.12Z" transform="translate(0 -13.47)"/><path class="cls-2" d="M333.86,116.71V98.48h7.78v2.46h-5.17v5.53H341v2.46h-4.5v7.78Z" transform="translate(0 -13.47)"/><path class="cls-2" d="M348.81,102.78a4.57,4.57,0,0,1,.38-1.94,4.08,4.08,0,0,1,2.42-2.23,4.53,4.53,0,0,1,1.57-.28,4.58,4.58,0,0,1,1.58.28,4.7,4.7,0,0,1,1.42.82,4.26,4.26,0,0,1,1,1.41,4.57,4.57,0,0,1,.39,1.94v9.63a4.58,4.58,0,0,1-.39,2,3.91,3.91,0,0,1-1,1.35,4.4,4.4,0,0,1-1.42.85,4.58,4.58,0,0,1-1.58.28,4.53,4.53,0,0,1-1.57-.28,4.11,4.11,0,0,1-1.4-.85,4,4,0,0,1-1-1.35,4.59,4.59,0,0,1-.38-2Zm2.61,9.63a1.73,1.73,0,0,0,.52,1.39,1.93,1.93,0,0,0,2.48,0,1.73,1.73,0,0,0,.53-1.39v-9.63a1.73,1.73,0,0,0-.53-1.39,1.93,1.93,0,0,0-2.48,0,1.73,1.73,0,0,0-.52,1.39Z" transform="translate(0 -13.47)"/><path class="cls-2" d="M365.49,116.71V98.48h4.2c3.07,0,4.61,1.79,4.61,5.35a6.77,6.77,0,0,1-.5,2.74,3.88,3.88,0,0,1-1.75,1.82l2.81,8.32H372.1l-2.43-7.78H368.1v7.78Zm2.61-15.77v5.68h1.49a2.59,2.59,0,0,0,1.1-.19,1.56,1.56,0,0,0,.64-.55,2.6,2.6,0,0,0,.28-.88,8.7,8.7,0,0,0,.08-1.22,8.55,8.55,0,0,0-.08-1.21,2.28,2.28,0,0,0-.31-.91,2.07,2.07,0,0,0-1.84-.72Z" transform="translate(0 -13.47)"/><path class="cls-2" d="M394.13,116.71V100.94h-3V98.48h8.65v2.46h-3v15.77Z" transform="translate(0 -13.47)"/><path class="cls-2" d="M406.55,116.71V98.48h2.61v7.81h3.22V98.48H415v18.23h-2.61v-8.12h-3.22v8.12Z" transform="translate(0 -13.47)"/><path class="cls-2" d="M423.08,116.71V98.48h7.78v2.46h-5.17v5.35h4.51v2.46h-4.51v5.35h5.17v2.61Z" transform="translate(0 -13.47)"/><path class="cls-2" d="M462.11,98.48l-2.71,18.23h-2.46l-2-11.83h-.05l-2,11.83h-2.45l-2.72-18.23h2.77l1.3,11.57h.06l2-11.57h2L458,110.33h0l1.26-11.85Z" transform="translate(0 -13.47)"/><path class="cls-2" d="M469.46,116.71V98.48h2.61v18.23Z" transform="translate(0 -13.47)"/><path class="cls-2" d="M480.13,116.71V98.48h2.51l3.94,11h.05v-11h2.61v18.23h-2.45l-4-11h-.05v11Z" transform="translate(0 -13.47)"/></svg>